# Blender v2.91.2 OBJ File: 'tensided_dice.blend'
# www.blender.org
mtllib tensideddice.mtl
o Cone
v 0.000000 -1.000000 0.000000
v 0.000000 1.000000 0.000000
v 0.956982 -0.105573 0.310942
v 0.591447 0.105573 0.814058
v 0.000000 -0.105573 1.006231
v 0.956982 0.105573 -0.310942
v 0.591447 -0.105573 -0.814058
v 0.000000 0.105573 -1.006231
v -0.591448 -0.105573 -0.814058
v -0.956982 0.105573 -0.310943
v -0.956982 -0.105573 0.310943
v -0.591448 0.105573 0.814058
vt 0.499900 0.499949
vt 0.182266 0.479668
vt 0.241173 0.356088
vt 0.332966 0.330654
vt 0.999900 0.499949
vt 0.589863 0.415937
vt 0.859687 0.260822
vt 0.984082 0.317987
vt 0.741173 0.143961
vt 0.832966 0.169395
vt 0.500100 0.007120
vt 0.682267 0.020381
vt 0.484082 0.182062
vt 0.359687 0.239227
vt 0.999900 0.000100
vt 0.000100 0.492929
vt 0.089863 0.084113
vt 0.499900 0.000100
vn 0.4347 -0.6731 0.5983
vn 0.7034 -0.6731 -0.2285
vn -0.0000 -0.6731 -0.7396
vn -0.7034 -0.6731 -0.2285
vn -0.4347 -0.6731 0.5983
vn 0.4347 0.6731 -0.5983
vn 0.7034 0.6731 0.2285
vn -0.0000 0.6731 0.7396
vn -0.7034 0.6731 0.2285
vn -0.4347 0.6731 -0.5983
usemtl Material.001
s off
f 1/1/1 3/2/1 4/3/1 5/4/1
f 3/5/2 1/6/2 7/7/2 6/8/2
f 7/7/3 1/6/3 9/9/3 8/10/3
f 9/9/4 1/6/4 11/11/4 10/12/4
f 11/13/5 1/1/5 5/4/5 12/14/5
f 8/10/6 2/15/6 6/8/6 7/7/6
f 6/16/7 2/17/7 4/3/7 3/2/7
f 4/3/8 2/17/8 12/14/8 5/4/8
f 12/14/9 2/17/9 10/18/9 11/13/9
f 9/9/10 10/12/10 2/15/10 8/10/10
